<mxfile host="app.diagrams.net" modified="2023-11-16T12:24:41.807Z" agent="Mozilla/5.0 (Windows NT 10.0; Win64; x64) AppleWebKit/537.36 (KHTML, like Gecko) Chrome/119.0.0.0 Safari/537.36" etag="aW14yloixEaqC8--qRQP" version="22.1.2" type="github">
  <diagram id="C5RBs43oDa-KdzZeNtuy" name="Page-1">
    <mxGraphModel dx="794" dy="474" grid="1" gridSize="10" guides="1" tooltips="1" connect="1" arrows="1" fold="1" page="1" pageScale="1" pageWidth="827" pageHeight="1169" math="0" shadow="0">
      <root>
        <mxCell id="WIyWlLk6GJQsqaUBKTNV-0" />
        <mxCell id="WIyWlLk6GJQsqaUBKTNV-1" parent="WIyWlLk6GJQsqaUBKTNV-0" />
        <mxCell id="3bNqrfw8Hnyf_bLtGApV-22" style="edgeStyle=orthogonalEdgeStyle;rounded=0;orthogonalLoop=1;jettySize=auto;html=1;exitX=0.5;exitY=1;exitDx=0;exitDy=0;exitPerimeter=0;entryX=0.5;entryY=0;entryDx=0;entryDy=0;" edge="1" parent="WIyWlLk6GJQsqaUBKTNV-1" source="3bNqrfw8Hnyf_bLtGApV-1" target="3bNqrfw8Hnyf_bLtGApV-3">
          <mxGeometry relative="1" as="geometry" />
        </mxCell>
        <mxCell id="3bNqrfw8Hnyf_bLtGApV-1" value="" style="verticalLabelPosition=bottom;verticalAlign=top;html=1;shape=mxgraph.flowchart.on-page_reference;" vertex="1" parent="WIyWlLk6GJQsqaUBKTNV-1">
          <mxGeometry x="170" y="30" width="56" height="50" as="geometry" />
        </mxCell>
        <mxCell id="3bNqrfw8Hnyf_bLtGApV-3" value="&lt;font style=&quot;font-size: 11px;&quot;&gt;Submit registration form&lt;/font&gt;" style="rounded=1;whiteSpace=wrap;html=1;absoluteArcSize=1;arcSize=14;strokeWidth=2;" vertex="1" parent="WIyWlLk6GJQsqaUBKTNV-1">
          <mxGeometry x="169.5" y="150" width="57" height="50" as="geometry" />
        </mxCell>
        <mxCell id="3bNqrfw8Hnyf_bLtGApV-33" style="edgeStyle=orthogonalEdgeStyle;rounded=0;orthogonalLoop=1;jettySize=auto;html=1;exitX=0.5;exitY=1;exitDx=0;exitDy=0;exitPerimeter=0;entryX=0.5;entryY=0;entryDx=0;entryDy=0;" edge="1" parent="WIyWlLk6GJQsqaUBKTNV-1" source="3bNqrfw8Hnyf_bLtGApV-4" target="3bNqrfw8Hnyf_bLtGApV-7">
          <mxGeometry relative="1" as="geometry" />
        </mxCell>
        <mxCell id="3bNqrfw8Hnyf_bLtGApV-69" value="yes&lt;br&gt;" style="edgeLabel;html=1;align=center;verticalAlign=middle;resizable=0;points=[];" vertex="1" connectable="0" parent="3bNqrfw8Hnyf_bLtGApV-33">
          <mxGeometry x="-0.1115" y="-1" relative="1" as="geometry">
            <mxPoint x="1" as="offset" />
          </mxGeometry>
        </mxCell>
        <mxCell id="3bNqrfw8Hnyf_bLtGApV-4" value="form complete?" style="strokeWidth=2;html=1;shape=mxgraph.flowchart.decision;whiteSpace=wrap;" vertex="1" parent="WIyWlLk6GJQsqaUBKTNV-1">
          <mxGeometry x="152" y="247.5" width="92" height="75" as="geometry" />
        </mxCell>
        <mxCell id="3bNqrfw8Hnyf_bLtGApV-7" value="Verification of details&lt;br&gt;" style="rounded=1;whiteSpace=wrap;html=1;absoluteArcSize=1;arcSize=14;strokeWidth=2;" vertex="1" parent="WIyWlLk6GJQsqaUBKTNV-1">
          <mxGeometry x="166.31" y="360" width="63.38" height="50" as="geometry" />
        </mxCell>
        <mxCell id="3bNqrfw8Hnyf_bLtGApV-14" value="Evaluate submission" style="rounded=1;whiteSpace=wrap;html=1;absoluteArcSize=1;arcSize=14;strokeWidth=2;" vertex="1" parent="WIyWlLk6GJQsqaUBKTNV-1">
          <mxGeometry x="286.25" y="460" width="67.5" height="50" as="geometry" />
        </mxCell>
        <mxCell id="3bNqrfw8Hnyf_bLtGApV-45" style="edgeStyle=orthogonalEdgeStyle;rounded=0;orthogonalLoop=1;jettySize=auto;html=1;exitX=1;exitY=0.5;exitDx=0;exitDy=0;exitPerimeter=0;entryX=0;entryY=0.5;entryDx=0;entryDy=0;" edge="1" parent="WIyWlLk6GJQsqaUBKTNV-1" source="3bNqrfw8Hnyf_bLtGApV-15" target="3bNqrfw8Hnyf_bLtGApV-17">
          <mxGeometry relative="1" as="geometry" />
        </mxCell>
        <mxCell id="3bNqrfw8Hnyf_bLtGApV-71" value="yes&lt;br&gt;" style="edgeLabel;html=1;align=center;verticalAlign=middle;resizable=0;points=[];" vertex="1" connectable="0" parent="3bNqrfw8Hnyf_bLtGApV-45">
          <mxGeometry x="-0.2317" y="-1" relative="1" as="geometry">
            <mxPoint as="offset" />
          </mxGeometry>
        </mxCell>
        <mxCell id="3bNqrfw8Hnyf_bLtGApV-15" value="submission acceptance?" style="strokeWidth=2;html=1;shape=mxgraph.flowchart.decision;whiteSpace=wrap;" vertex="1" parent="WIyWlLk6GJQsqaUBKTNV-1">
          <mxGeometry x="382.5" y="455" width="95" height="60" as="geometry" />
        </mxCell>
        <mxCell id="3bNqrfw8Hnyf_bLtGApV-16" value="Rejection Notice" style="rounded=1;whiteSpace=wrap;html=1;absoluteArcSize=1;arcSize=14;strokeWidth=2;" vertex="1" parent="WIyWlLk6GJQsqaUBKTNV-1">
          <mxGeometry x="402.5" y="260" width="55" height="50" as="geometry" />
        </mxCell>
        <mxCell id="3bNqrfw8Hnyf_bLtGApV-17" value="Issue Acceptance Letter" style="rounded=1;whiteSpace=wrap;html=1;absoluteArcSize=1;arcSize=14;strokeWidth=2;" vertex="1" parent="WIyWlLk6GJQsqaUBKTNV-1">
          <mxGeometry x="520" y="460" width="70" height="50" as="geometry" />
        </mxCell>
        <mxCell id="3bNqrfw8Hnyf_bLtGApV-40" style="edgeStyle=orthogonalEdgeStyle;rounded=0;orthogonalLoop=1;jettySize=auto;html=1;exitX=0.5;exitY=1;exitDx=0;exitDy=0;exitPerimeter=0;entryX=0.5;entryY=0;entryDx=0;entryDy=0;" edge="1" parent="WIyWlLk6GJQsqaUBKTNV-1" source="3bNqrfw8Hnyf_bLtGApV-18" target="3bNqrfw8Hnyf_bLtGApV-14">
          <mxGeometry relative="1" as="geometry">
            <mxPoint x="320" y="450" as="targetPoint" />
          </mxGeometry>
        </mxCell>
        <mxCell id="3bNqrfw8Hnyf_bLtGApV-70" value="yes&lt;br&gt;" style="edgeLabel;html=1;align=center;verticalAlign=middle;resizable=0;points=[];" vertex="1" connectable="0" parent="3bNqrfw8Hnyf_bLtGApV-40">
          <mxGeometry x="0.0044" relative="1" as="geometry">
            <mxPoint as="offset" />
          </mxGeometry>
        </mxCell>
        <mxCell id="3bNqrfw8Hnyf_bLtGApV-18" value="Maximum standards met?" style="strokeWidth=2;html=1;shape=mxgraph.flowchart.decision;whiteSpace=wrap;" vertex="1" parent="WIyWlLk6GJQsqaUBKTNV-1">
          <mxGeometry x="266.25" y="351.88" width="107.5" height="66.25" as="geometry" />
        </mxCell>
        <mxCell id="3bNqrfw8Hnyf_bLtGApV-19" value="Student Personal File" style="strokeWidth=2;html=1;shape=mxgraph.flowchart.document2;whiteSpace=wrap;size=0.1733331298828125;" vertex="1" parent="WIyWlLk6GJQsqaUBKTNV-1">
          <mxGeometry x="280" y="260" width="65" height="50" as="geometry" />
        </mxCell>
        <mxCell id="3bNqrfw8Hnyf_bLtGApV-20" value="Acceptance Letter" style="strokeWidth=2;html=1;shape=mxgraph.flowchart.document2;whiteSpace=wrap;size=0.3142852783203125;" vertex="1" parent="WIyWlLk6GJQsqaUBKTNV-1">
          <mxGeometry x="520" y="150" width="70" height="50" as="geometry" />
        </mxCell>
        <mxCell id="3bNqrfw8Hnyf_bLtGApV-21" value="" style="endArrow=classic;html=1;rounded=0;" edge="1" parent="WIyWlLk6GJQsqaUBKTNV-1">
          <mxGeometry width="50" height="50" relative="1" as="geometry">
            <mxPoint x="380" y="200" as="sourcePoint" />
            <mxPoint x="380" y="200" as="targetPoint" />
          </mxGeometry>
        </mxCell>
        <mxCell id="3bNqrfw8Hnyf_bLtGApV-24" value="" style="endArrow=classic;html=1;rounded=0;" edge="1" parent="WIyWlLk6GJQsqaUBKTNV-1">
          <mxGeometry width="50" height="50" relative="1" as="geometry">
            <mxPoint x="380" y="200" as="sourcePoint" />
            <mxPoint x="380" y="200" as="targetPoint" />
          </mxGeometry>
        </mxCell>
        <mxCell id="3bNqrfw8Hnyf_bLtGApV-25" style="edgeStyle=orthogonalEdgeStyle;rounded=0;orthogonalLoop=1;jettySize=auto;html=1;exitX=0.5;exitY=1;exitDx=0;exitDy=0;entryX=0.5;entryY=0;entryDx=0;entryDy=0;entryPerimeter=0;" edge="1" parent="WIyWlLk6GJQsqaUBKTNV-1" source="3bNqrfw8Hnyf_bLtGApV-3" target="3bNqrfw8Hnyf_bLtGApV-4">
          <mxGeometry relative="1" as="geometry" />
        </mxCell>
        <mxCell id="3bNqrfw8Hnyf_bLtGApV-29" style="edgeStyle=orthogonalEdgeStyle;rounded=0;orthogonalLoop=1;jettySize=auto;html=1;exitX=1;exitY=0.5;exitDx=0;exitDy=0;entryX=1;entryY=0.5;entryDx=0;entryDy=0;entryPerimeter=0;" edge="1" parent="WIyWlLk6GJQsqaUBKTNV-1" source="3bNqrfw8Hnyf_bLtGApV-3" target="3bNqrfw8Hnyf_bLtGApV-1">
          <mxGeometry relative="1" as="geometry" />
        </mxCell>
        <mxCell id="3bNqrfw8Hnyf_bLtGApV-35" style="edgeStyle=orthogonalEdgeStyle;rounded=0;orthogonalLoop=1;jettySize=auto;html=1;exitX=1;exitY=0.5;exitDx=0;exitDy=0;entryX=0;entryY=0.5;entryDx=0;entryDy=0;entryPerimeter=0;" edge="1" parent="WIyWlLk6GJQsqaUBKTNV-1" source="3bNqrfw8Hnyf_bLtGApV-7" target="3bNqrfw8Hnyf_bLtGApV-18">
          <mxGeometry relative="1" as="geometry" />
        </mxCell>
        <mxCell id="3bNqrfw8Hnyf_bLtGApV-39" value="" style="endArrow=classic;html=1;rounded=0;" edge="1" parent="WIyWlLk6GJQsqaUBKTNV-1">
          <mxGeometry width="50" height="50" relative="1" as="geometry">
            <mxPoint x="380" y="340" as="sourcePoint" />
            <mxPoint x="380" y="340" as="targetPoint" />
          </mxGeometry>
        </mxCell>
        <mxCell id="3bNqrfw8Hnyf_bLtGApV-43" style="edgeStyle=orthogonalEdgeStyle;rounded=0;orthogonalLoop=1;jettySize=auto;html=1;exitX=1;exitY=0.5;exitDx=0;exitDy=0;entryX=0;entryY=0.5;entryDx=0;entryDy=0;entryPerimeter=0;" edge="1" parent="WIyWlLk6GJQsqaUBKTNV-1" source="3bNqrfw8Hnyf_bLtGApV-14" target="3bNqrfw8Hnyf_bLtGApV-15">
          <mxGeometry relative="1" as="geometry" />
        </mxCell>
        <mxCell id="3bNqrfw8Hnyf_bLtGApV-48" style="edgeStyle=orthogonalEdgeStyle;rounded=0;orthogonalLoop=1;jettySize=auto;html=1;exitX=0.5;exitY=0;exitDx=0;exitDy=0;entryX=0.507;entryY=0.827;entryDx=0;entryDy=0;entryPerimeter=0;" edge="1" parent="WIyWlLk6GJQsqaUBKTNV-1" source="3bNqrfw8Hnyf_bLtGApV-17" target="3bNqrfw8Hnyf_bLtGApV-20">
          <mxGeometry relative="1" as="geometry">
            <Array as="points" />
          </mxGeometry>
        </mxCell>
        <mxCell id="3bNqrfw8Hnyf_bLtGApV-53" value="" style="endArrow=classic;html=1;rounded=0;exitX=0.5;exitY=0;exitDx=0;exitDy=0;exitPerimeter=0;entryX=0.5;entryY=1;entryDx=0;entryDy=0;" edge="1" parent="WIyWlLk6GJQsqaUBKTNV-1" source="3bNqrfw8Hnyf_bLtGApV-15" target="3bNqrfw8Hnyf_bLtGApV-16">
          <mxGeometry width="50" height="50" relative="1" as="geometry">
            <mxPoint x="380" y="340" as="sourcePoint" />
            <mxPoint x="430" y="330" as="targetPoint" />
            <Array as="points">
              <mxPoint x="430" y="390" />
            </Array>
          </mxGeometry>
        </mxCell>
        <mxCell id="3bNqrfw8Hnyf_bLtGApV-74" value="No" style="edgeLabel;html=1;align=center;verticalAlign=middle;resizable=0;points=[];" vertex="1" connectable="0" parent="3bNqrfw8Hnyf_bLtGApV-53">
          <mxGeometry x="-0.4529" y="1" relative="1" as="geometry">
            <mxPoint as="offset" />
          </mxGeometry>
        </mxCell>
        <mxCell id="3bNqrfw8Hnyf_bLtGApV-57" value="" style="endArrow=classic;html=1;rounded=0;entryX=1;entryY=0.5;entryDx=0;entryDy=0;entryPerimeter=0;exitX=0;exitY=0.5;exitDx=0;exitDy=0;" edge="1" parent="WIyWlLk6GJQsqaUBKTNV-1" source="3bNqrfw8Hnyf_bLtGApV-16">
          <mxGeometry width="50" height="50" relative="1" as="geometry">
            <mxPoint x="400" y="284.5" as="sourcePoint" />
            <mxPoint x="345" y="284.5" as="targetPoint" />
          </mxGeometry>
        </mxCell>
        <mxCell id="3bNqrfw8Hnyf_bLtGApV-59" value="" style="endArrow=none;html=1;rounded=0;exitX=1;exitY=0.5;exitDx=0;exitDy=0;exitPerimeter=0;" edge="1" parent="WIyWlLk6GJQsqaUBKTNV-1" source="3bNqrfw8Hnyf_bLtGApV-18">
          <mxGeometry width="50" height="50" relative="1" as="geometry">
            <mxPoint x="380" y="340" as="sourcePoint" />
            <mxPoint x="430" y="385" as="targetPoint" />
          </mxGeometry>
        </mxCell>
        <mxCell id="3bNqrfw8Hnyf_bLtGApV-75" value="No" style="edgeLabel;html=1;align=center;verticalAlign=middle;resizable=0;points=[];" vertex="1" connectable="0" parent="3bNqrfw8Hnyf_bLtGApV-59">
          <mxGeometry x="-0.3274" y="1" relative="1" as="geometry">
            <mxPoint as="offset" />
          </mxGeometry>
        </mxCell>
        <mxCell id="3bNqrfw8Hnyf_bLtGApV-62" value="" style="endArrow=none;html=1;rounded=0;entryX=1;entryY=0.5;entryDx=0;entryDy=0;" edge="1" parent="WIyWlLk6GJQsqaUBKTNV-1" target="3bNqrfw8Hnyf_bLtGApV-16">
          <mxGeometry width="50" height="50" relative="1" as="geometry">
            <mxPoint x="560" y="285" as="sourcePoint" />
            <mxPoint x="455" y="280" as="targetPoint" />
          </mxGeometry>
        </mxCell>
      </root>
    </mxGraphModel>
  </diagram>
</mxfile>
